<svg version="1.1" xmlns="http://www.w3.org/2000/svg" xmlns:xlink="http://www.w3.org/1999/xlink" width="84.99868" height="73.08333" viewBox="0,0,84.99868,73.08333"><g transform="translate(-224.24216,-215.23909)"><g data-paper-data="{&quot;isPaintingLayer&quot;:true}" fill="none" fill-rule="nonzero" stroke="none" stroke-width="none" stroke-linecap="none" stroke-linejoin="miter" stroke-miterlimit="10" stroke-dasharray="" stroke-dashoffset="0" font-family="none" font-weight="none" font-size="none" text-anchor="none" style="mix-blend-mode: normal"><path d="M303.83317,229.57242c0,0 -6.86266,15.56451 -9.22829,26.48666c-2.21996,10.24961 -1.06301,30.701 -2.68838,30.76334c-1.27813,0.04903 -9.10416,-11.72916 -9.10416,-11.72916l-7.66667,9.66666l-8.66666,-9l-8.16666,9.66667l-7.16667,-8.33333c0,0 -7.65104,10.6955 -8.97916,9.97916c-1.18648,-0.63994 -0.46842,-20.51373 -2.68838,-30.76334c-2.36562,-10.92215 -10.22829,-25.65332 -10.22829,-25.65332" data-paper-data="{&quot;origPos&quot;:null,&quot;index&quot;:null}" stroke="#ffffff" stroke-width="3" stroke-linecap="round"/><path d="M299.979,238.42659l-41.83334,46.5l-16.83333,-19.33333l25,-27.83334" data-paper-data="{&quot;origPos&quot;:null,&quot;index&quot;:null}" stroke="#ffffff" stroke-width="3" stroke-linecap="round"/><path d="M266.64567,276.25991l-30,-31.33334l10.66667,-11.75" data-paper-data="{&quot;origPos&quot;:null,&quot;index&quot;:null}" stroke="#ffffff" stroke-width="3" stroke-linecap="round"/><path d="M267.4219,233.82409l25.89043,29.1025l-10.66667,12l-36.16666,-40.25" data-paper-data="{&quot;origPos&quot;:null,&quot;index&quot;:null}" stroke="#ffffff" stroke-width="3" stroke-linecap="round"/><path d="M297.31233,244.25992l-11.66668,-9.91666" data-paper-data="{&quot;origPos&quot;:null,&quot;index&quot;:null}" stroke="#ffffff" stroke-width="3" stroke-linecap="round"/><path d="M250.81234,277.25991l33.16666,-39" data-paper-data="{&quot;origPos&quot;:null,&quot;index&quot;:null}" stroke="#ffffff" stroke-width="3" stroke-linecap="round"/><path d="M266.91055,238.33019c21.41089,0 38.76785,-6.88362 38.76785,-15.375c0,-8.49138 8.28813,15.43166 -38.76785,15.08193c-49.06777,-0.36468 -38.76786,-23.57331 -38.76786,-15.08193c0,8.49138 17.35696,15.375 38.76786,15.375z" data-paper-data="{&quot;origPos&quot;:null,&quot;index&quot;:null}" stroke="#005082" stroke-width="6" stroke-linecap="butt"/><path d="M227.66651,219.11939c0,-8.49138 -7.72839,14.49639 39.125,15.08193c46.85454,0.58555 39.125,-23.57331 39.125,-15.08193c0,8.49138 -17.51686,15.375 -39.125,15.375c-21.60814,0 -39.125,-6.88362 -39.125,-15.375z" data-paper-data="{&quot;origPos&quot;:null,&quot;index&quot;:null}" stroke="#009cfb" stroke-width="4" stroke-linecap="butt"/></g></g></svg>