<svg version="1.1" xmlns="http://www.w3.org/2000/svg" xmlns:xlink="http://www.w3.org/1999/xlink" width="84.99868" height="74.33333" viewBox="0,0,84.99868,74.33333"><g transform="translate(-170.42567,-210.36409)"><g data-paper-data="{&quot;isPaintingLayer&quot;:true}" fill="none" fill-rule="nonzero" stroke="none" stroke-width="none" stroke-linecap="none" stroke-linejoin="miter" stroke-miterlimit="10" stroke-dasharray="" stroke-dashoffset="0" font-family="none" font-weight="none" font-size="none" text-anchor="none" style="mix-blend-mode: normal"><path d="M252.41666,226.78076c0,0 -7.86267,14.73117 -10.22829,25.65332c-2.21996,10.24961 -1.5019,30.1234 -2.68838,30.76334c-1.32812,0.71634 -8.97916,-9.97916 -8.97916,-9.97916l-7.16667,8.33333l-8.16666,-9.66667l-8.66666,9l-7.66667,-9.66666c0,0 -7.82603,11.77819 -9.10416,11.72916c-1.62537,-0.06234 -0.46842,-20.51373 -2.68838,-30.76334c-2.36563,-10.92215 -9.22829,-26.48666 -9.22829,-26.48666" data-paper-data="{&quot;origPos&quot;:null}" stroke="#ffffff" stroke-width="3" stroke-linecap="round"/><path d="M215.35417,233.88492l25,27.83334l-16.83333,19.33333l-41.83334,-46.5" data-paper-data="{&quot;origPos&quot;:null}" stroke="#ffffff" stroke-width="3" stroke-linecap="round"/><path d="M234.35417,229.30158l10.66667,11.75l-30,31.33334" data-paper-data="{&quot;origPos&quot;:null}" stroke="#ffffff" stroke-width="3" stroke-linecap="round"/><path d="M235.1875,230.80159l-36.16666,40.25l-10.66667,-12l25.89043,-29.1025" data-paper-data="{&quot;origPos&quot;:null}" stroke="#ffffff" stroke-width="3" stroke-linecap="round"/><path d="M196.02085,230.46826l-11.66668,9.91666" data-paper-data="{&quot;origPos&quot;:null}" stroke="#ffffff" stroke-width="3" stroke-linecap="round"/><path d="M197.68751,234.38492l33.16666,39" data-paper-data="{&quot;origPos&quot;:null}" stroke="#ffffff" stroke-width="3" stroke-linecap="round"/><path d="M251.52382,218.08019c0,-8.49138 10.29991,14.71725 -38.76786,15.08193c-47.05598,0.34973 -38.76785,-23.57331 -38.76785,-15.08193c0,8.49138 17.35696,15.375 38.76785,15.375c21.4109,0 38.76786,-6.88362 38.76786,-15.375z" data-paper-data="{&quot;origPos&quot;:null,&quot;index&quot;:null}" stroke="#005082" stroke-width="6" stroke-linecap="butt"/><path d="M212.875,229.61939c-21.60814,0 -39.125,-6.88362 -39.125,-15.375c0,-8.49138 -7.72954,15.66748 39.125,15.08193c46.85339,-0.58554 39.125,-23.57331 39.125,-15.08193c0,8.49138 -17.51686,15.375 -39.125,15.375z" data-paper-data="{&quot;origPos&quot;:null,&quot;index&quot;:null}" stroke="#009cfb" stroke-width="4" stroke-linecap="butt"/></g></g></svg>