<svg version="1.1" xmlns="http://www.w3.org/2000/svg" xmlns:xlink="http://www.w3.org/1999/xlink" width="91.491" height="45.85416" viewBox="0,0,91.491,45.85416"><g transform="translate(-170.75901,-196.69742)"><g data-paper-data="{&quot;isPaintingLayer&quot;:true}" fill="none" fill-rule="nonzero" stroke="none" stroke-width="none" stroke-linecap="none" stroke-linejoin="miter" stroke-miterlimit="10" stroke-dasharray="" stroke-dashoffset="0" font-family="none" font-weight="none" font-size="none" text-anchor="none" style="mix-blend-mode: normal"><g data-paper-data="{&quot;origPos&quot;:null}" fill="none" stroke="#ffffff" stroke-width="3" stroke-linecap="round"><path d="M222.85417,219.55158l22.16667,21.5" data-paper-data="{&quot;origPos&quot;:null}"/><path d="M247.6875,212.55159l-22.33333,25.83333l-10.33334,-10.66667l7.47376,-8.01917l4.6929,-13.81417" data-paper-data="{&quot;origPos&quot;:null}"/><path d="M202.02085,206.71826l3.16666,14l-10.50001,9.66666" data-paper-data="{&quot;origPos&quot;:null}"/><path d="M214.02084,204.21826l0.16666,24.33333" data-paper-data="{&quot;origPos&quot;:null}"/><path d="M190.35416,208.38492c0,0 4.59322,21.2649 4,21.66666c-0.87822,0.59479 -14.16666,-18.16666 -14.16666,-18.16666" data-paper-data="{&quot;origPos&quot;:null}"/><path d="M237.35417,207.71826l-5.83333,21" data-paper-data="{&quot;origPos&quot;:null}"/></g><path d="M213.08929,201.54667c-21.41089,0 -38.76785,6.88362 -38.76785,15.375c0,8.49138 -8.28813,-15.43166 38.76785,-15.08193c49.06777,0.36468 38.76786,23.57331 38.76786,15.08193c0,-8.49138 -17.35696,-15.375 -38.76786,-15.375z" data-paper-data="{&quot;origPos&quot;:null}" fill="none" stroke="#005082" stroke-width="6" stroke-linecap="butt"/><g data-paper-data="{&quot;origPos&quot;:null}" stroke="none" stroke-width="0" stroke-linecap="butt"><path d="M249,226.94742v-9h12.40426v9z" data-paper-data="{&quot;origPos&quot;:null}" fill="#005082"/><path d="M250.40957,218.19742v-9h11.84043v9z" data-paper-data="{&quot;origPos&quot;:null}" fill="#009cfb"/></g><path d="M252,214.07242c0,8.49138 7.72839,-14.49639 -39.125,-15.08193c-46.85454,-0.58555 -39.125,23.57331 -39.125,15.08193c0,-8.49138 17.51686,-15.375 39.125,-15.375c21.60814,0 39.125,6.88362 39.125,15.375z" data-paper-data="{&quot;origPos&quot;:null}" fill="none" stroke="#009cfb" stroke-width="4" stroke-linecap="butt"/><path d="M205,220.66667l4,14.33333" fill="none" stroke="#ffffff" stroke-width="3" stroke-linecap="round"/></g></g></svg>