<svg version="1.1" xmlns="http://www.w3.org/2000/svg" xmlns:xlink="http://www.w3.org/1999/xlink" width="137.2964" height="138.96896"><g transform="translate(-171.24726,-109.88831)"><g data-paper-data="{&quot;isPaintingLayer&quot;:true}" fill="none" fill-rule="nonzero" stroke="none" stroke-width="none" stroke-linecap="none" stroke-linejoin="miter" stroke-miterlimit="10" stroke-dasharray="" stroke-dashoffset="0" font-family="none" font-weight="none" font-size="none" text-anchor="none" style="mix-blend-mode: normal"><g data-paper-data="{&quot;origPos&quot;:null}" stroke="none" stroke-width="0" stroke-linecap="butt"><path d="M305.75275,180.62721c0,36.71837 -29.39169,66.48448 -65.6482,66.48448c-36.25649,0 -65.6482,-29.76611 -65.6482,-66.48448c0,-36.71837 29.3917,-66.48448 65.6482,-66.48448c36.25649,0 65.6482,29.76611 65.6482,66.48448z" data-paper-data="{&quot;origPos&quot;:null}" fill="#f75c1d"/><path d="M240.10454,222.85948c-24.24797,0 -43.90484,-19.28245 -43.90484,-43.06856c0,-23.78611 1.25866,-66.48448 43.90484,-66.48448c24.24797,0 59.61038,19.29141 58.95793,43.06856c-0.83628,30.47638 -34.70996,66.48448 -58.95793,66.48448z" data-paper-data="{&quot;origPos&quot;:null}" fill="#ffa528"/></g><g data-paper-data="{&quot;origPos&quot;:null}" fill="none" stroke="#80300b" stroke-width="6"><path d="M305.54366,179.37279c0,36.71837 -29.39169,66.48448 -65.6482,66.48448c-36.25649,0 -65.6482,-29.76611 -65.6482,-66.48448c0,-36.71837 29.3917,-66.48448 65.6482,-66.48448c36.25649,0 65.6482,29.76611 65.6482,66.48448z" data-paper-data="{&quot;origPos&quot;:null}" stroke-linecap="butt"/><g data-paper-data="{&quot;origPos&quot;:null}" stroke-linecap="round"><path d="M239.19859,245.85726c0,0 12.86248,-11.4032 12.64928,-32.8333c-0.13309,-13.37765 -5.65242,-22.86713 -5.48667,-36.59373c0.10835,-8.97216 2.40054,-18.9897 11.24747,-26.60692c9.124,-7.8558 36.22707,-6.82881 36.22707,-6.82881" data-paper-data="{&quot;origPos&quot;:null}"/><path d="M198.22073,230.80417c0,0 0.98205,-47.05186 28.22785,-73.74354c17.88093,-23.12016 48.9889,-33.30064 48.9889,-33.30064" data-paper-data="{&quot;origPos&quot;:null}"/><path d="M237.52602,113.44584c0,0 1.27341,21.91115 -10.53865,29.03951c-38.77019,23.39708 -51.34626,40.37195 -51.34626,40.37195" data-paper-data="{&quot;origPos&quot;:null}"/><path d="M196.82692,130.45026c0,0 39.00117,-0.21617 65.10388,21.81662c29.20553,24.6518 36.92261,54.84262 36.92261,54.84262" data-paper-data="{&quot;origPos&quot;:null}"/></g></g></g></g></svg>