<svg version="1.1" xmlns="http://www.w3.org/2000/svg" xmlns:xlink="http://www.w3.org/1999/xlink" width="91.491" height="45.85416"><g transform="translate(-217.27428,-196.69742)"><g data-paper-data="{&quot;isPaintingLayer&quot;:true}" fill="none" fill-rule="nonzero" stroke="none" stroke-width="none" stroke-linecap="none" stroke-linejoin="miter" stroke-miterlimit="10" stroke-dasharray="" stroke-dashoffset="0" font-family="none" font-weight="none" font-size="none" text-anchor="none" style="mix-blend-mode: normal"><g data-paper-data="{&quot;origPos&quot;:null,&quot;index&quot;:null}" fill="none" stroke="#ffffff" stroke-width="3" stroke-linecap="round"><path d="M256.67011,219.55158l-22.16667,21.5" data-paper-data="{&quot;origPos&quot;:null}"/><path d="M252.33679,205.88491l4.6929,13.81417l7.47376,8.01917l-10.33334,10.66667l-22.33333,-25.83333" data-paper-data="{&quot;origPos&quot;:null}"/><path d="M284.83677,230.38492l-10.5,-9.66666l3.16666,-14" data-paper-data="{&quot;origPos&quot;:null}"/><path d="M265.33678,228.55159l0.16666,-24.33333" data-paper-data="{&quot;origPos&quot;:null}"/><path d="M299.33678,211.88492c0,0 -13.28844,18.76145 -14.16666,18.16666c-0.59322,-0.40176 4,-21.66666 4,-21.66666" data-paper-data="{&quot;origPos&quot;:null}"/><path d="M242.17011,207.71826l5.83333,21" data-paper-data="{&quot;origPos&quot;:null}"/></g><path d="M227.66713,216.92167c0,8.49138 -10.29991,-14.71725 38.76786,-15.08193c47.05598,-0.34973 38.76785,23.57331 38.76785,15.08193c0,-8.49138 -17.35696,-15.375 -38.76785,-15.375c-21.4109,0 -38.76786,6.88362 -38.76786,15.375z" data-paper-data="{&quot;origPos&quot;:null,&quot;index&quot;:null}" fill="none" stroke="#005082" stroke-width="6" stroke-linecap="butt"/><g data-paper-data="{&quot;origPos&quot;:null,&quot;index&quot;:null}" stroke="none" stroke-width="0" stroke-linecap="butt"><path d="M218.12002,226.94742v-9h12.40426v9z" data-paper-data="{&quot;origPos&quot;:null}" fill="#005082"/><path d="M217.27428,218.19742v-9h11.84043v9z" data-paper-data="{&quot;origPos&quot;:null}" fill="#009cfb"/></g><path d="M266.64928,198.69742c21.60814,0 39.125,6.88362 39.125,15.375c0,8.49138 7.72954,-15.66748 -39.125,-15.08193c-46.85339,0.58554 -39.125,23.57331 -39.125,15.08193c0,-8.49138 17.51686,-15.375 39.125,-15.375z" data-paper-data="{&quot;origPos&quot;:null,&quot;index&quot;:null}" fill="none" stroke="#009cfb" stroke-width="4" stroke-linecap="butt"/><path d="M274.52428,220.66667l-4,14.33334" data-paper-data="{&quot;index&quot;:null}" fill="none" stroke="#ffffff" stroke-width="3" stroke-linecap="round"/></g></g></svg>